<svg id="Layer_1" data-name="Layer 1" xmlns="http://www.w3.org/2000/svg" viewBox="0 0 451.76 512"><defs><style>.cls-1{fill:#9396a5;}</style></defs><title>customer-support</title><path class="cls-1" d="M466.72,204.48C463.35,91.16,370.13,0,256,0S48.65,91.16,45.28,204.48L30.12,219.65V322.47l15.06,15.06v70.06a74.37,74.37,0,0,0,74.29,74.29h18.65A45.25,45.25,0,0,0,180.71,512h30.11a45.24,45.24,0,0,0,42.6-30.15l2.58,0c72.72,0,133.57-51.82,147.56-120.47h39.38l38.94-38.94V219.65ZM256,30.12c89.38,0,163.8,65.23,178.18,150.59H403.56C389.57,112.05,328.72,60.24,256,60.24S122.43,112.05,108.44,180.71H77.82C92.2,95.35,166.62,30.12,256,30.12ZM372.66,180.71c-48.68-.15-83.06,2.81-111.41-38.62L247.48,122l-11.83,21.32c-17.24,31.06-40.45,37.43-70,37.43H139.34a120.49,120.49,0,0,1,233.32,0ZM105.41,331.29H81.53L60.24,310V232.12l21.29-21.3h23.88Zm-30.12,76.3V361.41h33.12A149.18,149.18,0,0,0,147.74,436a45.29,45.29,0,0,0-9.62,15.78H119.47A44.22,44.22,0,0,1,75.29,407.59Zm135.53,74.29H180.71a15.06,15.06,0,0,1,0-30.12h30.11a15.06,15.06,0,0,1,0,30.12ZM376.47,331.29A120.6,120.6,0,0,1,256,451.76l-2.6,0a45.25,45.25,0,0,0-42.58-30.08c-30.92.07-30.42-.16-34.28.2a119.8,119.8,0,0,1-41-90.56V210.82h30.12c26.65,0,59.1-4.39,84.23-35,33.15,34.74,73.66,35,110,35h16.57ZM451.76,310l-21.29,21.29H406.59V210.82h23.88l21.29,21.3Z" transform="translate(-30.12)"/></svg>