<svg id="Capa_1" data-name="Capa 1" xmlns="http://www.w3.org/2000/svg" viewBox="0 0 512 341.33"><defs><style>.cls-1{fill:#9396a5;}</style></defs><title>email</title><path class="cls-1" d="M458.67,85.33H53.33A53.41,53.41,0,0,0,0,138.67V373.33a53.41,53.41,0,0,0,53.33,53.34H458.67A53.41,53.41,0,0,0,512,373.33V138.67A53.41,53.41,0,0,0,458.67,85.33Zm32,288a32,32,0,0,1-32,32H53.33a32,32,0,0,1-32-32V138.67a32,32,0,0,1,32-32H458.67a32,32,0,0,1,32,32V373.33Z" transform="translate(0 -85.33)"/><path class="cls-1" d="M467.46,132.65a10.68,10.68,0,0,0-14.83-2.77l-175,119.7a38.21,38.21,0,0,1-43.37,0l-175-119.7a10.66,10.66,0,1,0-12,17.6l175,119.7a59.38,59.38,0,0,0,67.46,0l175-119.7A10.67,10.67,0,0,0,467.46,132.65Z" transform="translate(0 -85.33)"/><path class="cls-1" d="M189.52,259.82a10.72,10.72,0,0,0-15-1.37l-128,106.67a10.68,10.68,0,0,0,13.67,16.41l128-106.67A10.68,10.68,0,0,0,189.52,259.82Z" transform="translate(0 -85.33)"/><path class="cls-1" d="M465.52,365.12l-128-106.67a10.68,10.68,0,0,0-13.68,16.41l128,106.66a10.68,10.68,0,1,0,13.68-16.4Z" transform="translate(0 -85.33)"/></svg>