<svg id="Capa_1" data-name="Capa 1" xmlns="http://www.w3.org/2000/svg" viewBox="0 0 446.51 209.64"><defs><style>.cls-1{fill:#9396a5;}</style></defs><title>glasses-shape</title><path class="cls-1" d="M92.13,328.08c79.29,0,105.3-77,116.41-109.89l.61-1.8a135.67,135.67,0,0,1,6.24-15.61c1.53-3.09,5.06-4.19,7.86-4.19s6.33,1.1,7.85,4.16a134.08,134.08,0,0,1,6.25,15.64l.61,1.8c11.11,32.88,37.12,109.86,116.42,109.89l0-4.09v4.09h0c27.68,0,49.94-11.08,66.15-32.93,26.49-35.7,28.76-91.67,23.89-107.69-11.12-36.68-52.82-54.88-76.68-62.47-13.68-4.34-40.87-6.55-80.81-6.55-33.26,0-63.64,1.58-63.51,1.6-.31,0-30.68-1.6-63.93-1.6-39.94,0-67.13,2.21-80.81,6.55C54.86,132.58,13.16,150.78,2,187.46c-4.86,16-2.58,72,23.9,107.68C42.15,317,64.41,328.08,92.13,328.08Zm160.41-161.5c.1-.31,10.32-30.85,68-30.85q5.63,0,11.84.4c65.17,4.3,91.66,38,94.54,65.63,2,19.31-.45,62.83-24.28,89.29-13.15,14.57-31.16,22-53.6,22-37.84,0-62.22-27.52-76-50.58C250.3,224.29,245.45,179.91,252.54,166.58Zm-233,35.18c2.88-27.59,29.38-61.33,94.55-65.63q6.19-.4,11.83-.4c57.28,0,67.64,29.62,68.35,31.57,6.78,12.61,1.93,57-20.85,95.14-13.78,23.07-38.15,50.57-76,50.58-22.39,0-40.41-7.39-53.55-22C20,264.6,17.52,221.07,19.54,201.76Z" transform="translate(0 -118.44)"/></svg>