<svg id="light" xmlns="http://www.w3.org/2000/svg" viewBox="0 0 512 512"><defs><style>.cls-1{fill:#9396a5;}</style></defs><title>hamburger</title><path class="cls-1" d="M256,512C114.84,512,0,397.16,0,256S114.84,0,256,0,512,114.84,512,256,397.16,512,256,512Zm0-490.67C126.61,21.33,21.33,126.61,21.33,256S126.61,490.67,256,490.67,490.67,385.39,490.67,256,385.39,21.33,256,21.33Z"/><path class="cls-1" d="M352,170.67H160a10.67,10.67,0,0,1,0-21.34H352a10.67,10.67,0,1,1,0,21.34Z"/><path class="cls-1" d="M352,266.67H160a10.67,10.67,0,1,1,0-21.34H352a10.67,10.67,0,1,1,0,21.34Z"/><path class="cls-1" d="M352,362.67H160a10.67,10.67,0,1,1,0-21.34H352a10.67,10.67,0,0,1,0,21.34Z"/></svg>