<svg id="Capa_1" data-name="Capa 1" xmlns="http://www.w3.org/2000/svg" viewBox="0 0 395 395"><defs><style>.cls-1{fill:#9396a5;}</style></defs><title>question-mark</title><path class="cls-1" d="M322.85,0H72.15A72.24,72.24,0,0,0,0,72.15v250.7A72.24,72.24,0,0,0,72.15,395h250.7A72.23,72.23,0,0,0,395,322.85V72.15A72.23,72.23,0,0,0,322.85,0ZM370,322.85A47.2,47.2,0,0,1,322.85,370H72.15A47.2,47.2,0,0,1,25,322.85V72.15A47.2,47.2,0,0,1,72.15,25h250.7A47.2,47.2,0,0,1,370,72.15v250.7Z"/><path class="cls-1" d="M197.5,79.91a61.32,61.32,0,0,0-61.25,61.25,12.5,12.5,0,0,0,25,0,36.25,36.25,0,1,1,72.5,0c0,11.5-8.31,19.19-22,30.48C199.21,182,185,193.68,185,212.31v40.1a12.5,12.5,0,1,0,25,0v-40.1c0-6.84,8.18-13.58,17.65-21.38,13.86-11.43,31.1-25.65,31.1-49.77A61.32,61.32,0,0,0,197.5,79.91Z"/><path class="cls-1" d="M197.5,283a16,16,0,1,0,16,16A16.06,16.06,0,0,0,197.5,283Z"/></svg>