<svg id="Layer_1" data-name="Layer 1" xmlns="http://www.w3.org/2000/svg" viewBox="0 0 507.55 512"><defs><style>.cls-1{fill:#9396a5;}</style></defs><title>shopping-bag</title><path class="cls-1" d="M461.46,120.5h-107V0H162.7V120.5H52.08L3,512H510.55ZM192.7,30H324.44v90.5H192.7ZM78.55,150.5H162.7v63.08a45,45,0,1,0,30,0V150.5H324.44v63.08a45,45,0,1,0,30,0V150.5H435L476.55,482H37ZM192.7,256a15,15,0,1,1-15-15A15,15,0,0,1,192.7,256Zm161.74,0a15,15,0,1,1-15-15A15,15,0,0,1,354.44,256Z" transform="translate(-3)"/></svg>