<svg id="Capa_1" data-name="Capa 1" xmlns="http://www.w3.org/2000/svg" viewBox="0 0 97.62 74.34"><defs><style>.cls-1{fill:#fff;}</style></defs><title>shopping-cart</title><path class="cls-1" d="M78.62,65.56H44.54a13.68,13.68,0,0,1-12-8.16L18.79,22.45a6.49,6.49,0,0,0-5.28-3.59H3.61a3.61,3.61,0,0,1,0-7.22h9.9a13.69,13.69,0,0,1,12,8.16l13.77,35a6.49,6.49,0,0,0,5.27,3.59H78.62a6.07,6.07,0,0,0,5-3.54L90.28,36a1.32,1.32,0,0,0,.08-.92,1.29,1.29,0,0,0-.89-.22h-47a3.61,3.61,0,0,1,0-7.22h47a7.77,7.77,0,0,1,7.61,10.77L90.44,57.2A13.25,13.25,0,0,1,78.62,65.56Z" transform="translate(0 -11.64)"/><circle class="cls-1" cx="35.27" cy="66.32" r="8.02"/><circle class="cls-1" cx="86.69" cy="66.32" r="8.02"/><path class="cls-1" d="M78.49,43.55H46.61a1.81,1.81,0,0,1,0-3.61H78.49a1.81,1.81,0,0,1,0,3.61Z" transform="translate(0 -11.64)"/><path class="cls-1" d="M76.05,52.57H49.86a1.8,1.8,0,0,1,0-3.6H76.05a1.8,1.8,0,1,1,0,3.6Z" transform="translate(0 -11.64)"/></svg>